<svg id="Layer_1" data-name="Layer 1" xmlns="http://www.w3.org/2000/svg" xmlns:xlink="http://www.w3.org/1999/xlink" viewBox="0 0 1080 1080"><defs><style>.cls-1{fill:url(#linear-gradient);}.cls-2{fill:#010101;}</style><linearGradient id="linear-gradient" x1="540" y1="-16.18" x2="540" y2="1108.19" gradientUnits="userSpaceOnUse"><stop offset="0" stop-color="#ffc800"/><stop offset="1" stop-color="#dbb000"/></linearGradient></defs><rect class="cls-1" width="1080" height="1080"/><path class="cls-2" d="M83.53,471.1l120.15-44.87v57.9L378.84,624.55V468.21l112.91-37.64V821.42H377.39V765L206.58,614.41V818.52h-123Zm149.1,8.69,121.6,98.43,2.89-154.89ZM357.12,782.33,232.63,676.66V1040H357.12V959.54h165V1040H643.74V426.23L522.15,471.1V844.58h-165Zm314.13-14.47V901H924.57V649.16H776.92v-29H924.57V484.13H671.25V741.8h149.1v27.5Zm-2.9-314.13H780.3V287.82c0-16.68,16.84-25.18,32.32-19l183.85,73v-22.2L810.58,245.28s-15.93-5.06-39.09,7.6l-249.71,110v90.83L647,402.36c11.45-5,21.35.54,21.35,13Zm272.87-412s-13-3.82-21,0L669.8,146.12V265.55L782,214.88s15.92-4.34,31.84,0L926.74,259v-194a6.25,6.25,0,0,1,9.39-5.4l60.34,35.08V75.19Z"/></svg>